#!OML:ASF H:\Martial Arts Walks\Project 1\Capture day 1\Session 1\male.ASF
:FULLY-SPECIFIED
:DEGREES
3902
root -1.46042 14.7511 -12.0992 -358.342 -20.2577 -371.01
lowerback 9.3653 3.5606 5.09929
upperback -1.36821 5.58033 3.71842
thorax -6.58917 2.61447 0.230465
lowerneck -3.6431 0.886907 -1.92165
upperneck 8.83522 1.04286 3.14123
head 3.47269 0.575399 1.41315
rclavicle -4.04663e-014 -3.50855e-014
rhumerus -16.4811 35.3443 -90.7834
rradius 61.6786
rwrist 53.179
rhand -40.4278 -430.088
rfingers 7.12502
rthumb -13.3801 819.638
lclavicle -4.04663e-014 -3.50855e-014
lhumerus -160.148 176.181 -68.0251
lradius 65.6414
lwrist 56.8617
lhand 34.5917 601.846
lfingers 7.12502
lthumb 57.7809 945.929
rfemur -1.45224 -14.0945 24.4937
rtibia 55.4117
rfoot -28.3992 -35.6248
rtoes -16.1229
lfemur -54.1963 19.7289 -8.80255
ltibia 54.6735
lfoot 4.04065 -1.50407
ltoes 14.1569
3903
root -1.4564 14.7478 -12.0617 -358.27 -20.1363 -371.166
lowerback 9.46732 3.5566 5.21709
upperback -1.43924 5.6037 3.74388
thorax -6.71459 2.61752 0.18001
lowerneck -3.73694 0.842391 -1.86046
upperneck 8.94638 0.975393 3.16595
head 3.53164 0.545886 1.41065
rclavicle 1.98501e-014 3.19049e-014
rhumerus -16.3227 35.1834 -90.8184
rradius 61.1225
rwrist 53.1402
rhand -40.4338 -430.03
rfingers 7.12502
rthumb -13.3859 819.58
lclavicle 1.98501e-014 3.19049e-014
lhumerus -159.988 176.336 -67.9062
lradius 65.6202
lwrist 56.7595
lhand 35.9317 602.579
lfingers 7.12502
lthumb 58.9458 947.738
rfemur -1.16485 -14.2165 24.5166
rtibia 55.0899
rfoot -28.3278 -35.5911
rtoes -16.1477
lfemur -54.3704 19.9015 -8.81635
ltibia 54.993
lfoot 3.7544 -1.70335
ltoes 14.3798
3904
root -1.45076 14.7432 -12.0226 -358.133 -19.7896 -371.328
lowerback 9.59606 3.46836 5.39223
upperback -1.63155 5.53322 3.76737
thorax -6.98274 2.56682 0.104161
lowerneck -3.71163 0.810121 -1.89371
upperneck 9.07107 0.919598 3.29638
head 3.57208 0.522426 1.45933
rclavicle -2.45476e-014 -1.71949e-014
rhumerus -16.3625 35.0499 -90.982
rradius 60.5803
rwrist 53.0095
rhand -40.5292 -430.938
rfingers 7.12502
rthumb -13.4778 820.482
lclavicle -2.45476e-014 -1.71949e-014
lhumerus -160.028 176.429 -67.794
lradius 65.6871
lwrist 56.8222
lhand 36.8299 602.701
lfingers 7.12502
lthumb 59.7195 948.63
rfemur -0.944422 -14.5669 24.5598
rtibia 54.7803
rfoot -28.2418 -35.6641
rtoes -16.2277
lfemur -54.6994 19.8627 -8.8795
ltibia 55.3054
lfoot 3.51997 -1.90836
ltoes 14.535
3905
root -1.44718 14.7371 -11.9871 -357.987 -19.4973 -371.479
lowerback 9.41517 3.40656 5.47608
upperback -1.61797 5.44925 3.84262
thorax -6.86761 2.52768 0.161488
lowerneck -3.77741 0.779359 -1.94449
upperneck 9.01567 0.878272 3.36079
head 3.5669 0.503223 1.48821
rclavicle 4.32046e-015 -7.40473e-015
rhumerus -16.0334 35.0524 -90.8495
rradius 60.029
rwrist 52.9377
rhand -40.6011 -430.481
rfingers 7.12502
rthumb -13.5472 820.02
lclavicle 4.32046e-015 -7.40473e-015
lhumerus -159.783 176.578 -67.6334
lradius 65.7633
lwrist 57.0646
lhand 36.0352 603.347
lfingers 7.12502
lthumb 59.0353 948.592
rfemur -0.762668 -14.8479 24.6158
rtibia 54.5011
rfoot -28.2 -35.6945
rtoes -16.2435
lfemur -55.0319 19.8937 -8.95181
ltibia 55.6133
lfoot 3.2907 -2.12136
ltoes 14.7087
3906
root -1.44277 14.7325 -11.95 -357.877 -19.283 -371.62
lowerback 9.28155 3.37197 5.55859
upperback -1.62398 5.40638 3.91575
thorax -6.79923 2.50703 0.207455
lowerneck -3.81163 0.741283 -1.93779
upperneck 8.99688 0.828994 3.34451
head 3.56851 0.478628 1.47972
rclavicle -5.77912e-014 8.34896e-015
rhumerus -15.8054 35.0163 -90.7687
rradius 59.5002
rwrist 52.8524
rhand -40.573 -430.892
rfingers 7.12502
rthumb -13.5201 820.433
lclavicle -5.77912e-014 8.34896e-015
lhumerus -159.624 176.73 -67.4847
lradius 65.8632
lwrist 57.3905
lhand 35.5171 604.15
lfingers 7.12502
lthumb 58.5868 948.967
rfemur -0.543949 -15.0741 24.6379
rtibia 54.2222
rfoot -28.0799 -35.7757
rtoes -16.3982
lfemur -55.3032 19.9895 -9.01703
ltibia 55.925
lfoot 3.04373 -2.30787
ltoes 15.0203
3907
root -1.44146 14.7278 -11.9147 -357.826 -19.2194 -371.713
lowerback 9.08403 3.4042 5.56507
upperback -1.53609 5.42949 3.96783
thorax -6.59645 2.52618 0.270539
lowerneck -3.87776 0.678736 -1.92899
upperneck 8.90682 0.746599 3.35197
head 3.55251 0.438741 1.47673
rclavicle 5.52528e-014 3.97569e-015
rhumerus -15.4712 34.9668 -90.6116
rradius 59.0211
rwrist 52.7732
rhand -40.5176 -430.726
rfingers 7.12502
rthumb -13.4667 820.27
lclavicle 5.52528e-014 3.97569e-015
lhumerus -159.411 176.96 -67.3212
lradius 65.9773
lwrist 57.621
lhand 34.711 604.767
lfingers 7.12502
lthumb 57.8851 948.943
rfemur -0.286116 -15.1302 24.6268
rtibia 53.954
rfoot -27.9513 -35.8431
rtoes -16.4625
lfemur -55.4451 20.2027 -9.06194
ltibia 56.2274
lfoot 2.81865 -2.44622
ltoes 15.0985
3908
root -1.43982 14.7221 -11.8791 -357.696 -19.1512 -371.862
lowerback 9.16992 3.40927 5.62643
upperback -1.69533 5.46603 4.01045
thorax -6.81397 2.53471 0.266333
lowerneck -3.85122 0.640349 -1.93584
upperneck 9.00077 0.687416 3.41324
head 3.58221 0.411692 1.49705
rclavicle 4.5988e-014 -1.15792e-014
rhumerus -15.5561 34.9174 -90.7421
rradius 58.5647
rwrist 52.7568
rhand -40.6612 -431.429
rfingers 7.12502
rthumb -13.6051 820.964
lclavicle 4.5988e-014 -1.15792e-014
lhumerus -159.483 177.085 -67.2634
lradius 66.0895
lwrist 57.8627
lhand 34.6244 606.089
lfingers 7.12502
lthumb 57.8095 950.198
rfemur -0.0913308 -15.1773 24.6869
rtibia 53.6863
rfoot -27.9234 -35.8438
rtoes -16.4984
lfemur -55.672 20.4231 -9.07918
ltibia 56.525
lfoot 2.61663 -2.57526
ltoes 15.2953
3909
root -1.43677 14.7165 -11.8427 -357.616 -19.0185 -371.998
lowerback 9.05659 3.39561 5.75407
upperback -1.70827 5.45504 4.04127
thorax -6.75522 2.52649 0.237236
lowerneck -3.83486 0.599268 -1.95029
upperneck 8.96253 0.629888 3.45849
head 3.56768 0.384313 1.51162
rclavicle 2.69384e-014 9.74045e-015
rhumerus -15.4371 34.8558 -90.7429
rradius 58.127
rwrist 52.8244
rhand -40.7407 -431.178
rfingers 7.12502
rthumb -13.6817 820.708
lclavicle 2.69384e-014 9.74045e-015
lhumerus -159.412 177.226 -67.1508
lradius 66.1684
lwrist 57.8427
lhand 35.2035 606.729
lfingers 7.12502
lthumb 58.3143 951.293
rfemur 0.154511 -15.2892 24.7148
rtibia 53.4249
rfoot -27.8524 -35.8704
rtoes -16.5503
lfemur -55.8528 20.5592 -9.10427
ltibia 56.7933
lfoot 2.41832 -2.6307
ltoes 15.3613
